{
    "asset" : {
        "generator" : "Khronos glTF Blender I/O v1.8.19",
        "version" : "2.0"
    },
    "scene" : 0,
    "scenes" : [
        {
            "name" : "Scene",
            "nodes" : [
                3
            ]
        }
    ],
    "nodes" : [
        {
            "mesh" : 0,
            "name" : "sparcles.001"
        },
        {
            "mesh" : 1,
            "name" : "sparcles.002"
        },
        {
            "mesh" : 2,
            "name" : "teleporter_collider"
        },
        {
            "children" : [
                0,
                1,
                2
            ],
            "mesh" : 3,
            "name" : "teleporter startrek"
        }
    ],
    "animations" : [
        {
            "channels" : [
                {
                    "sampler" : 0,
                    "target" : {
                        "node" : 1,
                        "path" : "rotation"
                    }
                },
                {
                    "sampler" : 1,
                    "target" : {
                        "node" : 0,
                        "path" : "rotation"
                    }
                }
            ],
            "name" : "Animation",
            "samplers" : [
                {
                    "input" : 27,
                    "interpolation" : "LINEAR",
                    "output" : 28
                },
                {
                    "input" : 27,
                    "interpolation" : "LINEAR",
                    "output" : 29
                }
            ]
        }
    ],
    "materials" : [
        {
            "alphaCutoff" : 0.5,
            "alphaMode" : "MASK",
            "emissiveFactor" : [
                0.33000001311302185,
                0.33000001311302185,
                0.33000001311302185
            ],
            "emissiveTexture" : {
                "index" : 0
            },
            "name" : "Glow",
            "pbrMetallicRoughness" : {
                "baseColorTexture" : {
                    "index" : 1
                },
                "metallicFactor" : 0
            }
        },
        {
            "name" : "Metal",
            "pbrMetallicRoughness" : {
                "baseColorFactor" : [
                    0.800000011920929,
                    0.800000011920929,
                    0.800000011920929,
                    1
                ],
                "roughnessFactor" : 0.12152132391929626
            }
        },
        {
            "alphaCutoff" : 0.5,
            "alphaMode" : "MASK",
            "name" : "Basic",
            "pbrMetallicRoughness" : {
                "baseColorTexture" : {
                    "index" : 2
                },
                "metallicFactor" : 0,
                "roughnessFactor" : 0.5
            }
        },
        {
            "doubleSided" : true,
            "emissiveFactor" : [
                0.5,
                0.5,
                0.5
            ],
            "emissiveTexture" : {
                "index" : 3
            },
            "name" : "Socials",
            "pbrMetallicRoughness" : {
                "baseColorTexture" : {
                    "index" : 4
                },
                "metallicFactor" : 0,
                "roughnessFactor" : 0.5
            }
        }
    ],
    "meshes" : [
        {
            "name" : "Cylinder.007",
            "primitives" : [
                {
                    "attributes" : {
                        "POSITION" : 0,
                        "NORMAL" : 1,
                        "TEXCOORD_0" : 2
                    },
                    "indices" : 3,
                    "material" : 0
                }
            ]
        },
        {
            "name" : "Cylinder.003",
            "primitives" : [
                {
                    "attributes" : {
                        "POSITION" : 4,
                        "NORMAL" : 5,
                        "TEXCOORD_0" : 6
                    },
                    "indices" : 3,
                    "material" : 0
                }
            ]
        },
        {
            "name" : "Cube.156",
            "primitives" : [
                {
                    "attributes" : {
                        "POSITION" : 7,
                        "NORMAL" : 8,
                        "TEXCOORD_0" : 9
                    },
                    "indices" : 10
                }
            ]
        },
        {
            "name" : "Cylinder.001",
            "primitives" : [
                {
                    "attributes" : {
                        "POSITION" : 11,
                        "NORMAL" : 12,
                        "TEXCOORD_0" : 13
                    },
                    "indices" : 14,
                    "material" : 1
                },
                {
                    "attributes" : {
                        "POSITION" : 15,
                        "NORMAL" : 16,
                        "TEXCOORD_0" : 17
                    },
                    "indices" : 18,
                    "material" : 2
                },
                {
                    "attributes" : {
                        "POSITION" : 19,
                        "NORMAL" : 20,
                        "TEXCOORD_0" : 21
                    },
                    "indices" : 22,
                    "material" : 0
                },
                {
                    "attributes" : {
                        "POSITION" : 23,
                        "NORMAL" : 24,
                        "TEXCOORD_0" : 25
                    },
                    "indices" : 26,
                    "material" : 3
                }
            ]
        }
    ],
    "textures" : [
        {
            "sampler" : 0,
            "source" : 0
        },
        {
            "sampler" : 0,
            "source" : 0
        },
        {
            "sampler" : 0,
            "source" : 1
        },
        {
            "sampler" : 0,
            "source" : 2
        },
        {
            "sampler" : 0,
            "source" : 2
        }
    ],
    "images" : [
        {
            "mimeType" : "image/png",
            "name" : "glow",
            "uri" : "glow.png"
        },
        {
            "mimeType" : "image/png",
            "name" : "cansy_texture_pack",
            "uri" : "cansy_texture_pack.png"
        },
        {
            "mimeType" : "image/jpeg",
            "name" : "socials",
            "uri" : "socials.jpg"
        }
    ],
    "accessors" : [
        {
            "bufferView" : 0,
            "componentType" : 5126,
            "count" : 40,
            "max" : [
                0.42902499437332153,
                3.1027917861938477,
                0.4511035680770874
            ],
            "min" : [
                -0.42902493476867676,
                0.15669012069702148,
                -0.4511035680770874
            ],
            "type" : "VEC3"
        },
        {
            "bufferView" : 1,
            "componentType" : 5126,
            "count" : 40,
            "type" : "VEC3"
        },
        {
            "bufferView" : 2,
            "componentType" : 5126,
            "count" : 40,
            "type" : "VEC2"
        },
        {
            "bufferView" : 3,
            "componentType" : 5123,
            "count" : 60,
            "type" : "SCALAR"
        },
        {
            "bufferView" : 4,
            "componentType" : 5126,
            "count" : 40,
            "max" : [
                0.36473801732063293,
                2.882063388824463,
                0.38350823521614075
            ],
            "min" : [
                -0.36473795771598816,
                0.37741851806640625,
                -0.38350823521614075
            ],
            "type" : "VEC3"
        },
        {
            "bufferView" : 5,
            "componentType" : 5126,
            "count" : 40,
            "type" : "VEC3"
        },
        {
            "bufferView" : 6,
            "componentType" : 5126,
            "count" : 40,
            "type" : "VEC2"
        },
        {
            "bufferView" : 7,
            "componentType" : 5126,
            "count" : 24,
            "max" : [
                0.47755181789398193,
                0.544986367225647,
                0.4911689758300781
            ],
            "min" : [
                -0.47755181789398193,
                0,
                -0.4911689758300781
            ],
            "type" : "VEC3"
        },
        {
            "bufferView" : 8,
            "componentType" : 5126,
            "count" : 24,
            "type" : "VEC3"
        },
        {
            "bufferView" : 9,
            "componentType" : 5126,
            "count" : 24,
            "type" : "VEC2"
        },
        {
            "bufferView" : 10,
            "componentType" : 5123,
            "count" : 36,
            "type" : "SCALAR"
        },
        {
            "bufferView" : 11,
            "componentType" : 5126,
            "count" : 180,
            "max" : [
                0.4762555956840515,
                5.078392028808594,
                0.4885033965110779
            ],
            "min" : [
                -0.4762555956840515,
                0,
                -0.4885033965110779
            ],
            "type" : "VEC3"
        },
        {
            "bufferView" : 12,
            "componentType" : 5126,
            "count" : 180,
            "type" : "VEC3"
        },
        {
            "bufferView" : 13,
            "componentType" : 5126,
            "count" : 180,
            "type" : "VEC2"
        },
        {
            "bufferView" : 14,
            "componentType" : 5123,
            "count" : 504,
            "type" : "SCALAR"
        },
        {
            "bufferView" : 15,
            "componentType" : 5126,
            "count" : 28,
            "max" : [
                0.3721050024032593,
                2.797637939453125,
                0.3816743791103363
            ],
            "min" : [
                -0.3721050024032593,
                0.38037246465682983,
                -0.3816743791103363
            ],
            "type" : "VEC3"
        },
        {
            "bufferView" : 16,
            "componentType" : 5126,
            "count" : 28,
            "type" : "VEC3"
        },
        {
            "bufferView" : 17,
            "componentType" : 5126,
            "count" : 28,
            "type" : "VEC2"
        },
        {
            "bufferView" : 18,
            "componentType" : 5123,
            "count" : 72,
            "type" : "SCALAR"
        },
        {
            "bufferView" : 19,
            "componentType" : 5126,
            "count" : 146,
            "max" : [
                0.4762555956840515,
                3.0696022510528564,
                0.4885033965110779
            ],
            "min" : [
                -0.4762555956840515,
                0.2023208737373352,
                -0.4885033965110779
            ],
            "type" : "VEC3"
        },
        {
            "bufferView" : 20,
            "componentType" : 5126,
            "count" : 146,
            "type" : "VEC3"
        },
        {
            "bufferView" : 21,
            "componentType" : 5126,
            "count" : 146,
            "type" : "VEC2"
        },
        {
            "bufferView" : 22,
            "componentType" : 5123,
            "count" : 420,
            "type" : "SCALAR"
        },
        {
            "bufferView" : 23,
            "componentType" : 5126,
            "count" : 56,
            "max" : [
                0.4762555956840515,
                3.3307383060455322,
                0.4885033965110779
            ],
            "min" : [
                -0.4762555956840515,
                3.1329431533813477,
                -0.4885033965110779
            ],
            "type" : "VEC3"
        },
        {
            "bufferView" : 24,
            "componentType" : 5126,
            "count" : 56,
            "type" : "VEC3"
        },
        {
            "bufferView" : 25,
            "componentType" : 5126,
            "count" : 56,
            "type" : "VEC2"
        },
        {
            "bufferView" : 26,
            "componentType" : 5123,
            "count" : 84,
            "type" : "SCALAR"
        },
        {
            "bufferView" : 27,
            "componentType" : 5126,
            "count" : 201,
            "max" : [
                8.333333333333334
            ],
            "min" : [
                0
            ],
            "type" : "SCALAR"
        },
        {
            "bufferView" : 28,
            "componentType" : 5126,
            "count" : 201,
            "type" : "VEC4"
        },
        {
            "bufferView" : 29,
            "componentType" : 5126,
            "count" : 201,
            "type" : "VEC4"
        }
    ],
    "bufferViews" : [
        {
            "buffer" : 0,
            "byteLength" : 480,
            "byteOffset" : 0
        },
        {
            "buffer" : 0,
            "byteLength" : 480,
            "byteOffset" : 480
        },
        {
            "buffer" : 0,
            "byteLength" : 320,
            "byteOffset" : 960
        },
        {
            "buffer" : 0,
            "byteLength" : 120,
            "byteOffset" : 1280
        },
        {
            "buffer" : 0,
            "byteLength" : 480,
            "byteOffset" : 1400
        },
        {
            "buffer" : 0,
            "byteLength" : 480,
            "byteOffset" : 1880
        },
        {
            "buffer" : 0,
            "byteLength" : 320,
            "byteOffset" : 2360
        },
        {
            "buffer" : 0,
            "byteLength" : 288,
            "byteOffset" : 2680
        },
        {
            "buffer" : 0,
            "byteLength" : 288,
            "byteOffset" : 2968
        },
        {
            "buffer" : 0,
            "byteLength" : 192,
            "byteOffset" : 3256
        },
        {
            "buffer" : 0,
            "byteLength" : 72,
            "byteOffset" : 3448
        },
        {
            "buffer" : 0,
            "byteLength" : 2160,
            "byteOffset" : 3520
        },
        {
            "buffer" : 0,
            "byteLength" : 2160,
            "byteOffset" : 5680
        },
        {
            "buffer" : 0,
            "byteLength" : 1440,
            "byteOffset" : 7840
        },
        {
            "buffer" : 0,
            "byteLength" : 1008,
            "byteOffset" : 9280
        },
        {
            "buffer" : 0,
            "byteLength" : 336,
            "byteOffset" : 10288
        },
        {
            "buffer" : 0,
            "byteLength" : 336,
            "byteOffset" : 10624
        },
        {
            "buffer" : 0,
            "byteLength" : 224,
            "byteOffset" : 10960
        },
        {
            "buffer" : 0,
            "byteLength" : 144,
            "byteOffset" : 11184
        },
        {
            "buffer" : 0,
            "byteLength" : 1752,
            "byteOffset" : 11328
        },
        {
            "buffer" : 0,
            "byteLength" : 1752,
            "byteOffset" : 13080
        },
        {
            "buffer" : 0,
            "byteLength" : 1168,
            "byteOffset" : 14832
        },
        {
            "buffer" : 0,
            "byteLength" : 840,
            "byteOffset" : 16000
        },
        {
            "buffer" : 0,
            "byteLength" : 672,
            "byteOffset" : 16840
        },
        {
            "buffer" : 0,
            "byteLength" : 672,
            "byteOffset" : 17512
        },
        {
            "buffer" : 0,
            "byteLength" : 448,
            "byteOffset" : 18184
        },
        {
            "buffer" : 0,
            "byteLength" : 168,
            "byteOffset" : 18632
        },
        {
            "buffer" : 0,
            "byteLength" : 804,
            "byteOffset" : 18800
        },
        {
            "buffer" : 0,
            "byteLength" : 3216,
            "byteOffset" : 19604
        },
        {
            "buffer" : 0,
            "byteLength" : 3216,
            "byteOffset" : 22820
        }
    ],
    "samplers" : [
        {
            "magFilter" : 9729,
            "minFilter" : 9987
        }
    ],
    "buffers" : [
        {
            "byteLength" : 26036,
            "uri" : "teleporter.bin"
        }
    ]
}
